<svg width="72" height="72" viewBox="0 0 72 72" fill="none" xmlns="http://www.w3.org/2000/svg">
<path d="M50.1899 6.19531H21.8099C19.9277 6.30837 18.1662 7.15949 16.908 8.56378C15.6497 9.96807 14.9964 11.8121 15.0899 13.6953V58.3053C14.9964 60.1885 15.6497 62.0326 16.908 63.4368C18.1662 64.8411 19.9277 65.6923 21.8099 65.8053H50.1899C52.072 65.6923 53.8335 64.8411 55.0918 63.4368C56.35 62.0326 57.0033 60.1885 56.9099 58.3053V13.6953C57.0033 11.8121 56.35 9.96807 55.0918 8.56378C53.8335 7.15949 52.072 6.30837 50.1899 6.19531ZM53.9099 58.3053C54.0022 59.393 53.6643 60.4736 52.9688 61.315C52.2733 62.1563 51.2755 62.6914 50.1899 62.8053H21.8099C20.7242 62.6914 19.7265 62.1563 19.0309 61.315C18.3354 60.4736 17.9975 59.393 18.0899 58.3053V13.6953C17.9975 12.6076 18.3354 11.527 19.0309 10.6857C19.7265 9.84428 20.7242 9.3092 21.8099 9.19531H26.3999V10.7253C26.3999 11.521 26.7159 12.284 27.2785 12.8466C27.8412 13.4092 28.6042 13.7253 29.3999 13.7253H42.5999C43.3955 13.7253 44.1586 13.4092 44.7212 12.8466C45.2838 12.284 45.5999 11.521 45.5999 10.7253V9.19531H50.1899C51.2755 9.3092 52.2733 9.84428 52.9688 10.6857C53.6643 11.527 54.0022 12.6076 53.9099 13.6953V58.3053Z" fill="white"/>
<path d="M30 56.8018H42C42.3978 56.8018 42.7794 56.6437 43.0607 56.3624C43.342 56.0811 43.5 55.6996 43.5 55.3018C43.5 54.9039 43.342 54.5224 43.0607 54.2411C42.7794 53.9598 42.3978 53.8018 42 53.8018H30C29.6022 53.8018 29.2206 53.9598 28.9393 54.2411C28.658 54.5224 28.5 54.9039 28.5 55.3018C28.5 55.6996 28.658 56.0811 28.9393 56.3624C29.2206 56.6437 29.6022 56.8018 30 56.8018Z" fill="white"/>
<path d="M30 56.8018H42C42.3978 56.8018 42.7794 56.6437 43.0607 56.3624C43.342 56.0811 43.5 55.6996 43.5 55.3018C43.5 54.9039 43.342 54.5224 43.0607 54.2411C42.7794 53.9598 42.3978 53.8018 42 53.8018H30C29.6022 53.8018 29.2206 53.9598 28.9393 54.2411C28.658 54.5224 28.5 54.9039 28.5 55.3018C28.5 55.6996 28.658 56.0811 28.9393 56.3624C29.2206 56.6437 29.6022 56.8018 30 56.8018Z" fill="white"/>
</svg>
