<svg width="62" height="62" viewBox="0 0 62 62" fill="none" xmlns="http://www.w3.org/2000/svg">
<path d="M22.2163 40.9978L12.2188 31.0003L22.2163 21.0028L24.0452 22.8628L15.9077 31.0003L24.0452 39.1378L22.2163 40.9978ZM15.4996 43.917H18.0829V47.792H43.9163V43.917H46.4996V52.6616C46.4996 53.8499 46.1018 54.8419 45.3061 55.6376C44.5104 56.4332 43.5167 56.8319 42.3249 56.8337H19.6743C18.4842 56.8337 17.4913 56.4358 16.6957 55.6402C15.9 54.8445 15.5013 53.8516 15.4996 52.6616V43.917ZM18.0829 18.0837H15.4996V9.34166C15.4996 8.1516 15.8983 7.15874 16.6957 6.36308C17.4931 5.56741 18.4859 5.16871 19.6743 5.16699H42.3275C43.5158 5.16699 44.5078 5.56569 45.3035 6.36308C46.0992 7.16046 46.4979 8.15333 46.4996 9.34166V18.0837H43.9163V14.2087H18.0829V18.0837ZM39.7829 40.9978L37.9539 39.1378L46.0914 31.0003L37.9539 22.8628L39.7829 21.0028L49.7804 31.0003L39.7829 40.9978Z" fill="white"/>
</svg>
