<svg width="49" height="49" viewBox="0 0 49 49" fill="none" xmlns="http://www.w3.org/2000/svg">
<g clip-path="url(#clip0_403_14)">
<path d="M12.25 23.6973V36.7503H25.3031L22.5808 34.0281H14.9722V26.4195L12.25 23.6973Z" fill="white"/>
<path d="M47.4624 43.9506L43.556 39.9898V43.5559H5.4449V37.9073H8.16712V35.7295H5.4449V26.6781H8.16712V24.5003H5.4449V15.7892H8.16712V13.6114H5.4449V6.00282L27.141 27.5764V23.7381L5.05018 1.75615C4.8598 1.5642 4.61657 1.43328 4.35149 1.38011C4.08642 1.32693 3.81152 1.35389 3.56183 1.45757C3.31214 1.56124 3.09898 1.73692 2.94953 1.96221C2.80008 2.1875 2.72111 2.45219 2.72268 2.72254V44.917C2.72268 45.278 2.86608 45.6242 3.12134 45.8794C3.3766 46.1347 3.7228 46.2781 4.08379 46.2781H46.496C46.7664 46.2797 47.0311 46.2007 47.2563 46.0513C47.4816 45.9018 47.6573 45.6886 47.761 45.4389C47.8647 45.1893 47.8916 44.9144 47.8384 44.6493C47.7853 44.3842 47.6544 44.141 47.4624 43.9506Z" fill="white"/>
<path d="M32.6666 40.8332H38.111C38.833 40.8332 39.5254 40.5464 40.0359 40.0359C40.5464 39.5254 40.8332 38.833 40.8332 38.111V11.8415L37.7027 6.08403C37.4606 5.66456 37.1109 5.31729 36.6898 5.07802C36.2687 4.83876 35.7914 4.71618 35.3071 4.72292C34.8119 4.72685 34.3271 4.86581 33.9049 5.12484C33.4828 5.38388 33.1394 5.75316 32.9116 6.19292L29.9443 11.8688V38.111C29.9443 38.833 30.2311 39.5254 30.7417 40.0359C31.2522 40.5464 31.9446 40.8332 32.6666 40.8332ZM32.6666 12.5221L35.3071 7.3907L38.111 12.5357V32.6665H32.6666V12.5221ZM32.6666 34.8851H38.111V38.2062H32.6666V34.8851Z" fill="white"/>
</g>
<defs>
<clipPath id="clip0_403_14">
<rect width="49" height="49" fill="white"/>
</clipPath>
</defs>
</svg>
