<svg width="176" height="132" viewBox="0 0 176 132" fill="none" xmlns="http://www.w3.org/2000/svg">
<g clip-path="url(#clip0_410_8)">
<path d="M165 0H11C8.08262 0 5.28473 1.15892 3.22182 3.22182C1.15892 5.28473 0 8.08262 0 11V121C0 123.917 1.15892 126.715 3.22182 128.778C5.28473 130.841 8.08262 132 11 132H165C167.917 132 170.715 130.841 172.778 128.778C174.841 126.715 176 123.917 176 121V11C176 8.08262 174.841 5.28473 172.778 3.22182C170.715 1.15892 167.917 0 165 0ZM156.53 121H20.13L58.63 81.18L50.71 73.535L11 114.62V19.36L79.365 87.395C81.426 89.4438 84.214 90.5937 87.12 90.5937C90.026 90.5937 92.814 89.4438 94.875 87.395L165 17.655V113.905L124.52 73.425L116.765 81.18L156.53 121ZM18.205 11H156.09L87.12 79.585L18.205 11Z" fill="white"/>
</g>
<defs>
<clipPath id="clip0_410_8">
<rect width="176" height="132" fill="white"/>
</clipPath>
</defs>
</svg>
