<svg width="62" height="62" viewBox="0 0 62 62" fill="none" xmlns="http://www.w3.org/2000/svg">
<path d="M19.3753 28.4167C12.917 28.4167 7.75034 33.5833 7.75034 40.0417C7.75034 42.315 8.39617 44.4592 9.53284 46.2417L1.57617 54.25L5.16701 57.8408L13.227 49.91C15.0095 51.0208 17.1278 51.6667 19.3753 51.6667C25.8337 51.6667 31.0003 46.5 31.0003 40.0417C31.0003 33.5833 25.8337 28.4167 19.3753 28.4167ZM19.3753 46.5C17.6625 46.5 16.0198 45.8196 14.8086 44.6084C13.5974 43.3972 12.917 41.7545 12.917 40.0417C12.917 38.3288 13.5974 36.6861 14.8086 35.4749C16.0198 34.2638 17.6625 33.5833 19.3753 33.5833C21.0882 33.5833 22.7309 34.2638 23.9421 35.4749C25.1532 36.6861 25.8337 38.3288 25.8337 40.0417C25.8337 41.7545 25.1532 43.3972 23.9421 44.6084C22.7309 45.8196 21.0882 46.5 19.3753 46.5ZM59.417 12.9167V49.0833C59.417 51.9508 57.1178 54.25 54.2503 54.25H28.2878C30.3803 52.9583 32.1628 51.1758 33.5062 49.0833H54.2503V23.25H33.5837V12.9167H7.75034V27.9517C4.57284 31 2.58367 35.2883 2.58367 40.0417V12.9167C2.58367 10.075 4.90867 7.75 7.75034 7.75H54.2503C55.6206 7.75 56.9348 8.29434 57.9037 9.26328C58.8727 10.2322 59.417 11.5464 59.417 12.9167Z" fill="white"/>
</svg>
