<svg width="69" height="69" viewBox="0 0 69 69" fill="none" xmlns="http://www.w3.org/2000/svg">
<path d="M49.7 46.175C50.8 44.425 51.45 42.4 51.45 40.2C51.45 33.975 46.425 28.95 40.2 28.95C33.975 28.95 28.95 33.975 28.95 40.2C28.95 46.425 33.975 51.45 40.175 51.45C42.375 51.45 44.425 50.8 46.15 49.7L53.95 57.5L57.5 53.95L49.7 46.175ZM40.2 46.45C38.5424 46.45 36.9527 45.7915 35.7806 44.6194C34.6085 43.4473 33.95 41.8576 33.95 40.2C33.95 38.5424 34.6085 36.9527 35.7806 35.7806C36.9527 34.6085 38.5424 33.95 40.2 33.95C41.8576 33.95 43.4473 34.6085 44.6194 35.7806C45.7915 36.9527 46.45 38.5424 46.45 40.2C46.45 41.8576 45.7915 43.4473 44.6194 44.6194C43.4473 45.7915 41.8576 46.45 40.2 46.45ZM39.3 25.2C37.45 25.25 35.675 25.65 34.05 26.325L32.675 24.25L23.175 39.7L15.65 30.9L6.575 45.425L2.5 42.5L15 22.5L22.5 31.25L32.5 15L39.3 25.2ZM45.775 26.45C44.175 25.75 42.45 25.325 40.65 25.225L53.45 5L57.5 7.95L45.775 26.45Z" fill="white"/>
</svg>
