<svg width="36" height="36" viewBox="0 0 36 36" fill="none" xmlns="http://www.w3.org/2000/svg">
<path d="M12.8471 9.3261C12.7405 9.07594 12.5637 8.86203 12.3381 8.71028C12.1125 8.55854 11.8477 8.47545 11.5758 8.4711H7.07582C6.95763 8.46439 6.83956 8.48648 6.73179 8.53547C6.62401 8.58446 6.52974 8.65888 6.45707 8.75235C6.39694 8.85874 6.36533 8.97888 6.36533 9.1011C6.36533 9.22331 6.39694 9.34345 6.45707 9.44985L9.52832 14.7711L4.69082 23.3098C4.62732 23.4151 4.59375 23.5357 4.59375 23.6586C4.59375 23.7815 4.62732 23.9021 4.69082 24.0073C4.75118 24.1074 4.83732 24.1895 4.94023 24.2449C5.04314 24.3003 5.15904 24.327 5.27582 24.3223H9.77582C10.0455 24.3139 10.3067 24.2262 10.5268 24.0701C10.7469 23.914 10.9161 23.6966 11.0133 23.4448L15.9183 14.7711L12.8471 9.3261ZM31.3083 3.23985C31.3664 3.13279 31.3968 3.01291 31.3968 2.8911C31.3968 2.76929 31.3664 2.64941 31.3083 2.54235C31.2418 2.44712 31.1522 2.37032 31.0479 2.31917C30.9437 2.26801 30.8281 2.24416 30.7121 2.24985H26.1221C25.8564 2.25735 25.5991 2.34373 25.3827 2.498C25.1663 2.65226 25.0008 2.86743 24.9071 3.1161C24.9071 3.1161 15.1196 20.4748 14.7821 21.0373L21.2396 32.8836C21.3448 33.1333 21.5194 33.3477 21.7428 33.5012C21.9661 33.6547 22.2287 33.741 22.4996 33.7498H26.9996C27.1177 33.7598 27.2364 33.7379 27.3432 33.6865C27.4501 33.635 27.5412 33.5559 27.6071 33.4573C27.6683 33.3513 27.7005 33.231 27.7005 33.1086C27.7005 32.9862 27.6683 32.8659 27.6071 32.7598L21.2058 21.0598L31.3083 3.23985Z" fill="white"/>
</svg>
