<svg width="153" height="146" viewBox="0 0 153 146" fill="none" xmlns="http://www.w3.org/2000/svg">
<g clip-path="url(#clip0_410_19)">
<path fill-rule="evenodd" clip-rule="evenodd" d="M19.1476 6.08901C28.7315 -3.43974 44.513 -1.74662 52.5376 8.97913L62.4758 22.2406C69.0121 30.9661 68.4293 43.1566 60.6725 50.8663L58.7982 52.7405C58.5866 53.5274 58.565 54.3534 58.7352 55.1503C59.2313 58.3633 61.9167 65.1673 73.1622 76.3498C84.4077 87.5323 91.259 90.2098 94.5192 90.7138C95.3399 90.8883 96.1904 90.864 96.9998 90.6429L100.213 87.4456C107.111 80.5944 117.695 79.3108 126.232 83.9491L141.273 92.1391C154.164 99.1321 157.417 116.646 146.864 127.144L135.674 138.263C132.146 141.767 127.405 144.689 121.625 145.232C107.371 146.563 74.1623 144.862 39.2525 110.157C6.67359 77.7594 0.420838 49.5039 -0.374537 35.5809C-0.768287 28.5406 2.55496 22.5871 6.79171 18.3819L19.1476 6.08901ZM43.0876 16.0588C39.095 10.7274 31.661 10.3021 27.4715 14.468L15.1077 26.753C12.509 29.336 11.2647 32.1868 11.4222 34.9115C12.0522 45.9759 17.0922 71.4673 47.5842 101.786C79.5725 133.585 109.112 134.538 120.53 133.467C122.861 133.255 125.177 132.042 127.342 129.892L138.525 118.765C143.076 114.244 142.076 106.007 135.635 102.511L120.593 94.3284C116.435 92.0761 111.569 92.8164 108.545 95.8246L104.961 99.392L100.788 95.2025C104.961 99.392 104.954 99.3999 104.946 99.3999L104.938 99.4156L104.914 99.4393L104.859 99.4865L104.741 99.5968C104.406 99.9024 104.048 100.181 103.67 100.432C103.04 100.849 102.205 101.314 101.158 101.699C99.0316 102.495 96.2123 102.92 92.7316 102.385C85.904 101.337 76.8556 96.683 64.8305 84.7288C52.8132 72.7745 48.1197 63.7813 47.0645 56.9615C46.5211 53.4808 46.9542 50.6615 47.7575 48.5353C48.2029 47.3404 48.8355 46.2239 49.6317 45.2278L49.8837 44.9521L49.994 44.834L50.0412 44.7868L50.0648 44.7631L50.0806 44.7474L52.3486 42.4951C55.7191 39.1325 56.1916 33.5649 53.018 29.3203L43.0876 16.0588Z" fill="white"/>
</g>
<defs>
<clipPath id="clip0_410_19">
<rect width="153" height="146" fill="white"/>
</clipPath>
</defs>
</svg>
