<svg width="69" height="69" viewBox="0 0 69 69" fill="none" xmlns="http://www.w3.org/2000/svg">
<path d="M26.565 19.8371C29.0002 21.4247 31.0012 23.5945 32.3867 26.1502C33.7722 28.7059 34.4985 31.5667 34.5 34.4737C34.5 28.3715 37.6309 23.0025 42.3703 19.8802C44.8127 18.2678 46.6013 15.8386 47.4159 13.0277L21.5625 12.9414C22.3862 15.8308 24.1629 18.2242 26.5219 19.8155L26.565 19.8371Z" fill="white"/>
<path d="M48.2138 26.1337C50.6417 24.3767 52.6189 22.0693 53.9831 19.4007C55.3474 16.7322 56.06 13.7783 56.0625 10.7812V8.625H60.375V0H8.625V8.625H12.9375V10.7812C12.9374 13.7678 13.6438 16.712 14.9989 19.3735C16.354 22.0349 18.3193 24.3381 20.7345 26.0949C22.1773 26.9989 23.3918 28.2238 24.2835 29.6742C25.1751 31.1247 25.7198 32.7614 25.875 34.4569C25.6931 36.1911 25.1316 37.8639 24.2306 39.3568C23.3295 40.8496 22.1109 42.1258 20.6612 43.0948C18.3006 44.8508 16.3763 47.127 15.0376 49.7468C13.6989 52.3667 12.9817 55.2597 12.9418 58.2015V60.3707H8.62931V68.9957H60.3793V60.3707H56.0668V58.2144C56.0322 55.2879 55.3264 52.4084 54.0038 49.7976C52.6812 47.1868 50.777 44.9143 48.438 43.1552C46.9766 42.1973 45.7438 40.9296 44.8272 39.4421C43.9105 37.9545 43.3323 36.2834 43.1336 34.5474C43.2691 32.8544 43.7947 31.2157 44.6693 29.7597C45.544 28.3037 46.7438 27.07 48.1749 26.1553L48.2138 26.1337ZM38.8125 34.5C38.9573 36.8465 39.6197 39.1318 40.7523 41.192C41.8849 43.2521 43.4595 45.0359 45.3632 46.4154C47.2686 47.7494 48.8376 49.5083 49.9461 51.5531C51.0546 53.5979 51.6721 55.8725 51.75 58.1972V60.375H17.25V58.2188C17.3213 55.9086 17.9264 53.6462 19.018 51.609C20.1096 49.5717 21.658 47.8148 23.5419 46.4758C25.4629 45.1031 27.0551 43.3211 28.2036 41.2582C29.3521 39.1954 30.0282 36.9033 30.1832 34.5474C30.0633 32.2532 29.4185 30.017 28.2985 28.011C27.1785 26.0051 25.6132 24.2829 23.7231 22.977C21.7355 21.6227 20.1073 19.8051 18.9788 17.6812C17.8504 15.5572 17.2556 13.1907 17.2457 10.7856V8.62931H51.7457V10.7856C51.7415 13.1724 51.1591 15.5228 50.0483 17.6354C48.9376 19.7481 47.3315 21.5602 45.3675 22.9166C43.4629 24.2109 41.881 25.9253 40.7437 27.9277C39.6065 29.93 38.9443 32.1668 38.8082 34.4655L38.8125 34.5Z" fill="white"/>
</svg>
