<svg width="55" height="55" viewBox="0 0 55 55" fill="none" xmlns="http://www.w3.org/2000/svg">
<path d="M1.58105 16.0348C8.91231 10.0956 18.0647 6.86109 27.4998 6.87504C37.3196 6.87504 46.3373 10.3057 53.4186 16.0348L49.0988 21.3813C42.9891 16.4327 35.3622 13.738 27.4998 13.75C19.3186 13.75 11.8019 16.61 5.90085 21.3813L1.58105 16.0348ZM8.77918 24.9494C14.0743 20.6594 20.6849 18.3232 27.4998 18.3334C34.3143 18.3233 40.9246 20.6586 46.2204 24.9471L41.8983 30.2959C37.8255 26.9969 32.7411 25.2004 27.4998 25.2084C22.0456 25.2084 17.0338 27.115 13.099 30.2959L8.77918 24.9494ZM15.9796 33.864C19.2379 31.2236 23.306 29.7856 27.4998 29.7917C31.8631 29.7917 35.8713 31.3157 39.02 33.8617L34.7002 39.2105C32.6635 37.5607 30.1209 36.6624 27.4998 36.6667C24.7727 36.6667 22.2679 37.62 20.2994 39.2105L15.9796 33.864ZM23.18 42.7786C24.4017 41.7881 25.9271 41.2484 27.4998 41.25C29.1361 41.25 30.6394 41.823 31.8196 42.7763L27.4998 48.125L23.18 42.7786Z" fill="white"/>
</svg>
