<svg width="129" height="163" viewBox="0 0 129 163" fill="none" xmlns="http://www.w3.org/2000/svg">
<g clip-path="url(#clip0_410_16)">
<path d="M64.5 93.1875C58.7211 93.1875 53.0719 91.4739 48.2669 88.2633C43.4619 85.0527 39.7169 80.4893 37.5054 75.1503C35.2939 69.8113 34.7153 63.9364 35.8427 58.2685C36.9701 52.6006 39.7529 47.3943 43.8392 43.308C47.9256 39.2217 53.1318 36.4389 58.7997 35.3114C64.4676 34.184 70.3425 34.7627 75.6816 36.9742C81.0206 39.1857 85.5839 42.9307 88.7945 47.7357C92.0051 52.5407 93.7188 58.1898 93.7188 63.9688C93.7095 71.7152 90.6281 79.1417 85.1505 84.6193C79.673 90.0969 72.2465 93.1782 64.5 93.1875ZM64.5 46.4375C61.0327 46.4375 57.6432 47.4657 54.7602 49.3921C51.8772 51.3184 49.6301 54.0564 48.3033 57.2598C46.9764 60.4633 46.6292 63.9882 47.3056 67.3889C47.9821 70.7897 49.6518 73.9134 52.1035 76.3652C54.5553 78.817 57.6791 80.4867 61.0798 81.1632C64.4806 81.8396 68.0055 81.4924 71.2089 80.1655C74.4124 78.8386 77.1504 76.5916 79.0767 73.7086C81.0031 70.8256 82.0313 67.4361 82.0313 63.9688C82.0266 59.3206 80.1781 54.8642 76.8914 51.5774C73.6046 48.2907 69.1482 46.4422 64.5 46.4375Z" fill="white"/>
<path d="M64.5 163.312L15.2022 105.173C14.5172 104.3 13.8393 103.422 13.1685 102.538C4.75183 91.4425 0.203121 77.8949 0.21879 63.9688C0.21879 46.9203 6.99126 30.5701 19.0463 18.515C31.1014 6.45997 47.4516 -0.3125 64.5 -0.3125C81.5485 -0.3125 97.8987 6.45997 109.954 18.515C122.009 30.5701 128.781 46.9203 128.781 63.9688C128.795 77.8883 124.248 91.429 115.837 102.52L115.832 102.538C115.832 102.538 114.078 104.84 113.815 105.15L64.5 163.312ZM22.501 95.4958C22.501 95.4958 23.8626 97.2957 24.1723 97.6813L64.5 145.244L104.88 97.6171C105.137 97.2957 106.505 95.4841 106.511 95.4783C113.39 86.4155 117.108 75.3468 117.094 63.9688C117.094 50.02 111.553 36.6426 101.689 26.7794C91.8262 16.9161 78.4488 11.375 64.5 11.375C50.5513 11.375 37.1739 16.9161 27.3106 26.7794C17.4474 36.6426 11.9063 50.02 11.9063 63.9688C11.8919 75.3541 15.6138 86.4297 22.501 95.4958Z" fill="white"/>
</g>
<defs>
<clipPath id="clip0_410_16">
<rect width="129" height="163" fill="white"/>
</clipPath>
</defs>
</svg>
