<svg width="61" height="62" viewBox="0 0 61 62" fill="none" xmlns="http://www.w3.org/2000/svg">
<path d="M30.1875 61.6371C24.217 61.6371 18.3805 59.8296 13.4162 56.4432C8.45193 53.0568 4.58272 48.2436 2.2979 42.6123C0.0130797 36.9809 -0.584733 30.7844 0.580058 24.8062C1.74485 18.8279 4.61993 13.3366 8.84173 9.02655C13.0635 4.7165 18.4424 1.78132 24.2982 0.592183C30.154 -0.596957 36.2237 0.0133532 41.7398 2.34593C47.2558 4.67852 51.9705 8.6286 55.2875 13.6967C58.6045 18.7648 60.375 24.7232 60.375 30.8185C60.375 38.9921 57.1945 46.8309 51.5333 52.6105C45.872 58.3901 38.1937 61.6371 30.1875 61.6371ZM30.1875 4.40266C25.0699 4.40266 20.0673 5.95193 15.8121 8.85454C11.557 11.7572 8.24055 15.8828 6.28213 20.7096C4.32371 25.5365 3.8113 30.8478 4.80969 35.972C5.80809 41.0962 8.27244 45.8031 11.8911 49.4974C15.5098 53.1917 20.1203 55.7076 25.1396 56.7269C30.1588 57.7461 35.3614 57.223 40.0894 55.2236C44.8175 53.2243 48.8586 49.8385 51.7018 45.4944C54.545 41.1504 56.0625 36.0431 56.0625 30.8185C56.0625 23.8126 53.3364 17.0936 48.4839 12.1397C43.6314 7.18576 37.05 4.40266 30.1875 4.40266Z" fill="white"/>
<path d="M40.0847 44.0267L28.0312 31.7213V11.0068H32.3438V29.8942L43.125 40.9228L40.0847 44.0267Z" fill="white"/>
</svg>
