<svg width="62" height="64" viewBox="0 0 62 64" fill="none" xmlns="http://www.w3.org/2000/svg">
<path fill-rule="evenodd" clip-rule="evenodd" d="M28.7122 4.54603C26.9469 4.78378 24.7677 5.29448 21.6684 6.02532L18.1351 6.85889C15.5188 7.47526 13.7133 7.90379 12.3362 8.38514C11.0051 8.85182 10.2518 9.3097 9.68545 9.89085C9.1162 10.4691 8.6677 11.2381 8.21057 12.597C7.73907 14.0029 7.31932 15.8432 6.71557 18.5171L5.89907 22.1214C5.1832 25.2884 4.68295 27.5132 4.45007 29.3153C4.22007 31.0705 4.2747 32.2592 4.57945 33.3393C4.88132 34.4195 5.45345 35.4556 6.55745 36.8204C7.69307 38.2234 9.27145 39.8406 11.5226 42.1388L16.7838 47.51C20.6909 51.4988 23.4711 54.3312 25.8631 56.192C28.2033 58.0177 29.9168 58.7015 31.6562 58.7015C33.3984 58.7015 35.1091 58.0177 37.4522 56.192C39.8413 54.3312 42.6243 51.4959 46.5315 47.5071C50.4415 43.5153 53.2158 40.6771 55.0415 38.238C56.8239 35.8459 57.4967 34.0995 57.4967 32.3209C57.4967 30.5451 56.8268 28.7988 55.0386 26.4066C53.2158 23.9646 50.4386 21.1235 46.5315 17.1347L41.2702 11.7634C39.0219 9.46819 37.4378 7.85682 36.0664 6.69746C34.7267 5.57038 33.7118 4.9863 32.6538 4.67811C31.5958 4.36699 30.4314 4.31416 28.7151 4.54603M28.1516 0.181542C30.2129 -0.0972926 32.0213 -0.0884875 33.8441 0.4457C35.6697 0.979888 37.2078 1.95141 38.8121 3.30155C40.3646 4.61061 42.0896 6.37166 44.2487 8.57592L49.6997 14.1409C53.466 17.9858 56.4502 21.0325 58.4684 23.7386C60.5499 26.5182 61.8121 29.195 61.8121 32.3209C61.8121 35.4497 60.5499 38.1265 58.4713 40.906C56.4502 43.6122 53.4688 46.6588 49.6997 50.5038L49.4697 50.7386C45.7034 54.5836 42.7192 57.6302 40.0684 59.6907C37.3458 61.8157 34.7209 63.1042 31.6591 63.1042C28.5972 63.1042 25.9752 61.8157 23.2497 59.6936C20.6018 57.6302 17.6176 54.5865 13.8484 50.7386L8.40032 45.1707C6.24407 42.9694 4.5162 41.2054 3.23395 39.6234C1.91145 37.9827 0.959825 36.4124 0.436575 34.5515C-0.0866755 32.6878 -0.0953006 30.8416 0.177824 28.7371C0.439449 26.7002 0.991449 24.2699 1.6757 21.235L2.5382 17.4106C3.1132 14.8776 3.57895 12.8113 4.13382 11.1647C4.71457 9.44178 5.44195 7.99477 6.63795 6.77377C7.83395 5.55277 9.2542 4.80726 10.939 4.22024C12.5518 3.65083 14.5758 3.17534 17.0569 2.59126L20.8031 1.71073C23.7758 1.0063 26.1563 0.448636 28.1516 0.178607M23.6867 19.7968C23.0126 19.1087 22.0984 18.7221 21.1452 18.7221C20.192 18.7221 19.2777 19.1087 18.6037 19.7968C17.9297 20.4849 17.551 21.4183 17.551 22.3914C17.551 23.3646 17.9297 24.2979 18.6037 24.9861C18.9375 25.3268 19.3337 25.5971 19.7697 25.7815C20.2058 25.9659 20.6732 26.0608 21.1452 26.0608C21.6172 26.0608 22.0846 25.9659 22.5206 25.7815C22.9567 25.5971 23.3529 25.3268 23.6867 24.9861C24.0205 24.6453 24.2852 24.2408 24.4658 23.7956C24.6465 23.3504 24.7394 22.8733 24.7394 22.3914C24.7394 21.9096 24.6465 21.4324 24.4658 20.9872C24.2852 20.542 24.0205 20.1375 23.6867 19.7968ZM15.5533 16.6856C17.036 15.1715 19.0471 14.3208 21.1442 14.3205C23.2413 14.3202 25.2526 15.1705 26.7356 16.6841C28.2187 18.1978 29.052 20.2509 29.0523 22.3919C29.0526 24.5328 28.2197 26.5861 26.7371 28.1002C25.254 29.6143 23.2426 30.4648 21.1452 30.4648C19.0478 30.4648 17.0364 29.6143 15.5533 28.1002C14.0703 26.5861 13.2371 24.5326 13.2371 22.3914C13.2371 20.2502 14.0703 18.1997 15.5533 16.6856ZM33.7521 31.863C33.0874 31.8889 32.4594 32.181 32.0041 32.676C30.8886 33.8148 31.1818 34.9507 31.4952 35.2706C31.8114 35.5906 32.9241 35.887 34.0367 34.7511C36.2907 32.45 40.1834 31.6869 42.6761 34.2316C44.6109 36.2069 44.5966 39.0422 43.438 41.2876C43.723 41.7107 43.8542 42.2221 43.8088 42.7335C43.7635 43.2449 43.5445 43.724 43.1897 44.0879C42.8349 44.4519 42.3667 44.6777 41.866 44.7265C41.3653 44.7752 40.8637 44.6437 40.4479 44.3548C39.1577 45.077 37.6613 45.3177 36.2159 45.0357C35.9384 44.9775 35.6749 44.8641 35.4403 44.7019C35.2058 44.5397 35.0048 44.3319 34.8489 44.0905C34.693 43.849 34.5852 43.5785 34.5317 43.2945C34.4781 43.0105 34.4799 42.7185 34.5369 42.4352C34.594 42.1519 34.7051 41.8829 34.8639 41.6434C35.0228 41.4039 35.2263 41.1988 35.4628 41.0396C35.6994 40.8804 35.9643 40.7704 36.2425 40.7157C36.5207 40.6611 36.8067 40.6629 37.0842 40.7211C37.5931 40.8297 38.4153 40.6624 39.1197 39.9404C40.2323 38.8016 39.9419 37.6657 39.6286 37.3458C39.3123 37.0258 38.1997 36.7294 37.0871 37.8653C34.8331 40.1664 30.9403 40.9295 28.4477 38.3848C26.5128 36.4095 26.5272 33.5742 27.6858 31.3288C27.4008 30.9058 27.2696 30.3943 27.3149 29.8829C27.3603 29.3715 27.5793 28.8924 27.9341 28.5285C28.2888 28.1645 28.7571 27.9387 29.2578 27.8899C29.7585 27.8412 30.2601 27.9727 30.6758 28.2616C31.6533 27.7304 32.7257 27.4486 33.7952 27.4603C34.3671 27.4658 34.9134 27.7029 35.314 28.1196C35.7146 28.5363 35.9367 29.0984 35.9313 29.6822C35.926 30.266 35.6937 30.8238 35.2855 31.2328C34.8774 31.6417 34.3239 31.8684 33.7521 31.863Z" fill="white"/>
</svg>
