<svg width="75" height="75" viewBox="0 0 75 75" fill="none" xmlns="http://www.w3.org/2000/svg">
<g clip-path="url(#clip0_404_12)">
<path d="M21.101 24.866C20.7203 24.866 20.3441 24.9489 19.9985 25.1088C19.653 25.2688 19.3464 25.502 19.1 25.7922L0.623766 47.5535C-0.823734 49.2597 0.389016 51.8787 2.62627 51.878L72.3763 51.8292C74.612 51.8277 75.8225 49.2102 74.3758 47.5055L59.1575 29.5805L55.61 33.5135L66.7048 46.583L8.30002 46.6227L22.3145 30.1152H34.2823C34.5958 29.1627 34.8733 28.2125 35.0173 27.269C35.5216 26.4436 36.0632 25.6415 36.6403 24.8652L21.101 24.866ZM67.4323 55.583L60.5488 55.589L66.707 62.8415L8.30076 62.8812L14.4658 55.6197L7.57477 55.6257L0.623766 63.8105C-0.823734 65.516 0.389016 68.1357 2.62627 68.135L72.3763 68.0862C74.612 68.0847 75.8225 65.4672 74.3758 63.7625L67.4323 55.583Z" fill="white"/>
<path d="M67.7708 0.65354C67.3521 0.235073 66.7844 0 66.1925 0C65.6005 0 65.0328 0.235073 64.6141 0.65354L38.5066 26.761C38.2891 26.9785 38.1256 27.2305 38.0168 27.4998L34.4506 39.967C34.2871 40.4823 34.5383 40.702 35.0941 40.5318L47.4998 36.9828C47.7691 36.874 48.0211 36.7113 48.2386 36.493L74.3461 10.3855C74.7648 9.96682 75 9.39893 75 8.80679C75 8.21465 74.7648 7.64676 74.3461 7.22804L67.7708 0.65354ZM62.0888 9.49304L65.5066 12.9108L46.6606 31.7583L43.2421 28.339L62.0888 9.49304Z" fill="white"/>
</g>
<defs>
<clipPath id="clip0_404_12">
<rect width="75" height="75" fill="white"/>
</clipPath>
</defs>
</svg>
