<svg width="512" height="512" viewBox="0 0 512 512" fill="none" xmlns="http://www.w3.org/2000/svg">
<path d="M217 28.0977V483.902L359 441.305V70.6967L217 28.0977ZM376.938 54.9777L377 57.3047V86.9997H393V54.9997L376.938 54.9777ZM119 54.9997V172.27H137V72.9997H199V54.9997H119ZM377 105V121H393V105H377ZM377 139V375H393V139H377ZM137 197.727V233H41V279H137V314.273L195.273 256L137 197.727ZM244 232C250.627 232 256 242.745 256 256C256 269.255 250.627 280 244 280C237.373 280 232 269.255 232 256C232 242.745 237.373 232 244 232ZM137 339.73H119V448H137V339.73ZM377 393V407H393V393H377ZM377 425V448H393V425H377ZM32 471V489H199V471H32ZM322.652 471L262.652 489H480V471H322.652Z" fill="white"/>
</svg>
