<svg width="36" height="36" viewBox="0 0 36 36" fill="none" xmlns="http://www.w3.org/2000/svg">
<path d="M33 4.5H3C1.365 4.56 0.06 5.865 0 7.5V28.5C0.06 30.135 1.365 31.44 3 31.5H33C34.635 31.44 35.94 30.135 36 28.5V7.5C35.9724 6.71314 35.6475 5.96601 35.0907 5.40928C34.534 4.85254 33.7869 4.52761 33 4.5ZM33 28.5H3V7.5H33V28.5ZM21 25.5V23.625C21 21.135 15.99 19.875 13.5 19.875C11.01 19.875 6 21.135 6 23.625V25.5H21ZM13.5 10.5C12.5054 10.5 11.5516 10.8951 10.8483 11.5983C10.1451 12.3016 9.75 13.2554 9.75 14.25C9.75 14.7425 9.847 15.2301 10.0355 15.6851C10.2239 16.14 10.5001 16.5534 10.8483 16.9017C11.5516 17.6049 12.5054 18 13.5 18C13.9925 18 14.4801 17.903 14.9351 17.7145C15.39 17.5261 15.8034 17.2499 16.1517 16.9017C16.4999 16.5534 16.7761 16.14 16.9645 15.6851C17.153 15.2301 17.25 14.7425 17.25 14.25C17.25 13.7575 17.153 13.2699 16.9645 12.8149C16.7761 12.36 16.4999 11.9466 16.1517 11.5983C15.8034 11.2501 15.39 10.9739 14.9351 10.7855C14.4801 10.597 13.9925 10.5 13.5 10.5ZM21 10.5V12H30V10.5H21ZM21 13.5V15H30V13.5H21ZM21 16.5V18H27V16.5H21Z" fill="white"/>
</svg>
