<svg width="36" height="36" viewBox="0 0 36 36" fill="none" xmlns="http://www.w3.org/2000/svg">
<path d="M13.8748 33L13.2748 28.2C12.9498 28.075 12.6438 27.925 12.3568 27.75C12.0698 27.575 11.7883 27.3875 11.5123 27.1875L7.0498 29.0625L2.9248 21.9375L6.7873 19.0125C6.7623 18.8375 6.7498 18.669 6.7498 18.507V17.4945C6.7498 17.3315 6.7623 17.1625 6.7873 16.9875L2.9248 14.0625L7.0498 6.9375L11.5123 8.8125C11.7873 8.6125 12.0748 8.425 12.3748 8.25C12.6748 8.075 12.9748 7.925 13.2748 7.8L13.8748 3H22.1248L22.7248 7.8C23.0498 7.925 23.3563 8.075 23.6443 8.25C23.9323 8.425 24.2133 8.6125 24.4873 8.8125L28.9498 6.9375L33.0748 14.0625L29.2123 16.9875C29.2373 17.1625 29.2498 17.3315 29.2498 17.4945V18.5055C29.2498 18.6685 29.2248 18.8375 29.1748 19.0125L33.0373 21.9375L28.9123 29.0625L24.4873 27.1875C24.2123 27.3875 23.9248 27.575 23.6248 27.75C23.3248 27.925 23.0248 28.075 22.7248 28.2L22.1248 33H13.8748ZM18.0748 23.25C19.5248 23.25 20.7623 22.7375 21.7873 21.7125C22.8123 20.6875 23.3248 19.45 23.3248 18C23.3248 16.55 22.8123 15.3125 21.7873 14.2875C20.7623 13.2625 19.5248 12.75 18.0748 12.75C16.5998 12.75 15.3558 13.2625 14.3428 14.2875C13.3298 15.3125 12.8238 16.55 12.8248 18C12.8258 19.45 13.3323 20.6875 14.3443 21.7125C15.3563 22.7375 16.5998 23.25 18.0748 23.25Z" fill="white"/>
</svg>
